G04 #@! TF.GenerationSoftware,KiCad,Pcbnew,(5.0.0)*
G04 #@! TF.CreationDate,2019-02-27T23:15:19+05:30*
G04 #@! TF.ProjectId,PCB,5043422E6B696361645F706362000000,rev?*
G04 #@! TF.SameCoordinates,Original*
G04 #@! TF.FileFunction,Legend,Top*
G04 #@! TF.FilePolarity,Positive*
%FSLAX46Y46*%
G04 Gerber Fmt 4.6, Leading zero omitted, Abs format (unit mm)*
G04 Created by KiCad (PCBNEW (5.0.0)) date 02/27/19 23:15:19*
%MOMM*%
%LPD*%
G01*
G04 APERTURE LIST*
%ADD10C,0.120000*%
%ADD11C,0.150000*%
G04 APERTURE END LIST*
D10*
G04 #@! TO.C,R2*
X104235000Y-121385000D02*
X104235000Y-118645000D01*
X104235000Y-118645000D02*
X97695000Y-118645000D01*
X97695000Y-118645000D02*
X97695000Y-121385000D01*
X97695000Y-121385000D02*
X104235000Y-121385000D01*
X105005000Y-120015000D02*
X104235000Y-120015000D01*
X96925000Y-120015000D02*
X97695000Y-120015000D01*
G04 #@! TO.C,U2*
X114030000Y-114875000D02*
G75*
G02X112030000Y-114875000I-1000000J0D01*
G01*
X112030000Y-114875000D02*
X110380000Y-114875000D01*
X110380000Y-114875000D02*
X110380000Y-125155000D01*
X110380000Y-125155000D02*
X115680000Y-125155000D01*
X115680000Y-125155000D02*
X115680000Y-114875000D01*
X115680000Y-114875000D02*
X114030000Y-114875000D01*
G04 #@! TO.C,C1*
X92790000Y-118090000D02*
G75*
G03X92790000Y-118090000I-2620000J0D01*
G01*
X92750000Y-118090000D02*
X87590000Y-118090000D01*
X92750000Y-118130000D02*
X87590000Y-118130000D01*
X92749000Y-118170000D02*
X87591000Y-118170000D01*
X92748000Y-118210000D02*
X87592000Y-118210000D01*
X92746000Y-118250000D02*
X87594000Y-118250000D01*
X92743000Y-118290000D02*
X87597000Y-118290000D01*
X92739000Y-118330000D02*
X91210000Y-118330000D01*
X89130000Y-118330000D02*
X87601000Y-118330000D01*
X92735000Y-118370000D02*
X91210000Y-118370000D01*
X89130000Y-118370000D02*
X87605000Y-118370000D01*
X92731000Y-118410000D02*
X91210000Y-118410000D01*
X89130000Y-118410000D02*
X87609000Y-118410000D01*
X92726000Y-118450000D02*
X91210000Y-118450000D01*
X89130000Y-118450000D02*
X87614000Y-118450000D01*
X92720000Y-118490000D02*
X91210000Y-118490000D01*
X89130000Y-118490000D02*
X87620000Y-118490000D01*
X92713000Y-118530000D02*
X91210000Y-118530000D01*
X89130000Y-118530000D02*
X87627000Y-118530000D01*
X92706000Y-118570000D02*
X91210000Y-118570000D01*
X89130000Y-118570000D02*
X87634000Y-118570000D01*
X92698000Y-118610000D02*
X91210000Y-118610000D01*
X89130000Y-118610000D02*
X87642000Y-118610000D01*
X92690000Y-118650000D02*
X91210000Y-118650000D01*
X89130000Y-118650000D02*
X87650000Y-118650000D01*
X92681000Y-118690000D02*
X91210000Y-118690000D01*
X89130000Y-118690000D02*
X87659000Y-118690000D01*
X92671000Y-118730000D02*
X91210000Y-118730000D01*
X89130000Y-118730000D02*
X87669000Y-118730000D01*
X92661000Y-118770000D02*
X91210000Y-118770000D01*
X89130000Y-118770000D02*
X87679000Y-118770000D01*
X92650000Y-118811000D02*
X91210000Y-118811000D01*
X89130000Y-118811000D02*
X87690000Y-118811000D01*
X92638000Y-118851000D02*
X91210000Y-118851000D01*
X89130000Y-118851000D02*
X87702000Y-118851000D01*
X92625000Y-118891000D02*
X91210000Y-118891000D01*
X89130000Y-118891000D02*
X87715000Y-118891000D01*
X92612000Y-118931000D02*
X91210000Y-118931000D01*
X89130000Y-118931000D02*
X87728000Y-118931000D01*
X92598000Y-118971000D02*
X91210000Y-118971000D01*
X89130000Y-118971000D02*
X87742000Y-118971000D01*
X92584000Y-119011000D02*
X91210000Y-119011000D01*
X89130000Y-119011000D02*
X87756000Y-119011000D01*
X92568000Y-119051000D02*
X91210000Y-119051000D01*
X89130000Y-119051000D02*
X87772000Y-119051000D01*
X92552000Y-119091000D02*
X91210000Y-119091000D01*
X89130000Y-119091000D02*
X87788000Y-119091000D01*
X92535000Y-119131000D02*
X91210000Y-119131000D01*
X89130000Y-119131000D02*
X87805000Y-119131000D01*
X92518000Y-119171000D02*
X91210000Y-119171000D01*
X89130000Y-119171000D02*
X87822000Y-119171000D01*
X92499000Y-119211000D02*
X91210000Y-119211000D01*
X89130000Y-119211000D02*
X87841000Y-119211000D01*
X92480000Y-119251000D02*
X91210000Y-119251000D01*
X89130000Y-119251000D02*
X87860000Y-119251000D01*
X92460000Y-119291000D02*
X91210000Y-119291000D01*
X89130000Y-119291000D02*
X87880000Y-119291000D01*
X92438000Y-119331000D02*
X91210000Y-119331000D01*
X89130000Y-119331000D02*
X87902000Y-119331000D01*
X92417000Y-119371000D02*
X91210000Y-119371000D01*
X89130000Y-119371000D02*
X87923000Y-119371000D01*
X92394000Y-119411000D02*
X91210000Y-119411000D01*
X89130000Y-119411000D02*
X87946000Y-119411000D01*
X92370000Y-119451000D02*
X91210000Y-119451000D01*
X89130000Y-119451000D02*
X87970000Y-119451000D01*
X92345000Y-119491000D02*
X91210000Y-119491000D01*
X89130000Y-119491000D02*
X87995000Y-119491000D01*
X92319000Y-119531000D02*
X91210000Y-119531000D01*
X89130000Y-119531000D02*
X88021000Y-119531000D01*
X92292000Y-119571000D02*
X91210000Y-119571000D01*
X89130000Y-119571000D02*
X88048000Y-119571000D01*
X92265000Y-119611000D02*
X91210000Y-119611000D01*
X89130000Y-119611000D02*
X88075000Y-119611000D01*
X92235000Y-119651000D02*
X91210000Y-119651000D01*
X89130000Y-119651000D02*
X88105000Y-119651000D01*
X92205000Y-119691000D02*
X91210000Y-119691000D01*
X89130000Y-119691000D02*
X88135000Y-119691000D01*
X92174000Y-119731000D02*
X91210000Y-119731000D01*
X89130000Y-119731000D02*
X88166000Y-119731000D01*
X92141000Y-119771000D02*
X91210000Y-119771000D01*
X89130000Y-119771000D02*
X88199000Y-119771000D01*
X92107000Y-119811000D02*
X91210000Y-119811000D01*
X89130000Y-119811000D02*
X88233000Y-119811000D01*
X92071000Y-119851000D02*
X91210000Y-119851000D01*
X89130000Y-119851000D02*
X88269000Y-119851000D01*
X92034000Y-119891000D02*
X91210000Y-119891000D01*
X89130000Y-119891000D02*
X88306000Y-119891000D01*
X91996000Y-119931000D02*
X91210000Y-119931000D01*
X89130000Y-119931000D02*
X88344000Y-119931000D01*
X91955000Y-119971000D02*
X91210000Y-119971000D01*
X89130000Y-119971000D02*
X88385000Y-119971000D01*
X91913000Y-120011000D02*
X91210000Y-120011000D01*
X89130000Y-120011000D02*
X88427000Y-120011000D01*
X91869000Y-120051000D02*
X91210000Y-120051000D01*
X89130000Y-120051000D02*
X88471000Y-120051000D01*
X91823000Y-120091000D02*
X91210000Y-120091000D01*
X89130000Y-120091000D02*
X88517000Y-120091000D01*
X91775000Y-120131000D02*
X91210000Y-120131000D01*
X89130000Y-120131000D02*
X88565000Y-120131000D01*
X91724000Y-120171000D02*
X91210000Y-120171000D01*
X89130000Y-120171000D02*
X88616000Y-120171000D01*
X91670000Y-120211000D02*
X91210000Y-120211000D01*
X89130000Y-120211000D02*
X88670000Y-120211000D01*
X91613000Y-120251000D02*
X91210000Y-120251000D01*
X89130000Y-120251000D02*
X88727000Y-120251000D01*
X91553000Y-120291000D02*
X91210000Y-120291000D01*
X89130000Y-120291000D02*
X88787000Y-120291000D01*
X91489000Y-120331000D02*
X91210000Y-120331000D01*
X89130000Y-120331000D02*
X88851000Y-120331000D01*
X91421000Y-120371000D02*
X91210000Y-120371000D01*
X89130000Y-120371000D02*
X88919000Y-120371000D01*
X91348000Y-120411000D02*
X88992000Y-120411000D01*
X91268000Y-120451000D02*
X89072000Y-120451000D01*
X91181000Y-120491000D02*
X89159000Y-120491000D01*
X91085000Y-120531000D02*
X89255000Y-120531000D01*
X90975000Y-120571000D02*
X89365000Y-120571000D01*
X90847000Y-120611000D02*
X89493000Y-120611000D01*
X90688000Y-120651000D02*
X89652000Y-120651000D01*
X90454000Y-120691000D02*
X89886000Y-120691000D01*
X91645000Y-115285225D02*
X91645000Y-115785225D01*
X91895000Y-115535225D02*
X91395000Y-115535225D01*
G04 #@! TO.C,C2*
X92790000Y-124480000D02*
G75*
G03X92790000Y-124480000I-2620000J0D01*
G01*
X87590000Y-124480000D02*
X92750000Y-124480000D01*
X87590000Y-124440000D02*
X92750000Y-124440000D01*
X87591000Y-124400000D02*
X92749000Y-124400000D01*
X87592000Y-124360000D02*
X92748000Y-124360000D01*
X87594000Y-124320000D02*
X92746000Y-124320000D01*
X87597000Y-124280000D02*
X92743000Y-124280000D01*
X87601000Y-124240000D02*
X89130000Y-124240000D01*
X91210000Y-124240000D02*
X92739000Y-124240000D01*
X87605000Y-124200000D02*
X89130000Y-124200000D01*
X91210000Y-124200000D02*
X92735000Y-124200000D01*
X87609000Y-124160000D02*
X89130000Y-124160000D01*
X91210000Y-124160000D02*
X92731000Y-124160000D01*
X87614000Y-124120000D02*
X89130000Y-124120000D01*
X91210000Y-124120000D02*
X92726000Y-124120000D01*
X87620000Y-124080000D02*
X89130000Y-124080000D01*
X91210000Y-124080000D02*
X92720000Y-124080000D01*
X87627000Y-124040000D02*
X89130000Y-124040000D01*
X91210000Y-124040000D02*
X92713000Y-124040000D01*
X87634000Y-124000000D02*
X89130000Y-124000000D01*
X91210000Y-124000000D02*
X92706000Y-124000000D01*
X87642000Y-123960000D02*
X89130000Y-123960000D01*
X91210000Y-123960000D02*
X92698000Y-123960000D01*
X87650000Y-123920000D02*
X89130000Y-123920000D01*
X91210000Y-123920000D02*
X92690000Y-123920000D01*
X87659000Y-123880000D02*
X89130000Y-123880000D01*
X91210000Y-123880000D02*
X92681000Y-123880000D01*
X87669000Y-123840000D02*
X89130000Y-123840000D01*
X91210000Y-123840000D02*
X92671000Y-123840000D01*
X87679000Y-123800000D02*
X89130000Y-123800000D01*
X91210000Y-123800000D02*
X92661000Y-123800000D01*
X87690000Y-123759000D02*
X89130000Y-123759000D01*
X91210000Y-123759000D02*
X92650000Y-123759000D01*
X87702000Y-123719000D02*
X89130000Y-123719000D01*
X91210000Y-123719000D02*
X92638000Y-123719000D01*
X87715000Y-123679000D02*
X89130000Y-123679000D01*
X91210000Y-123679000D02*
X92625000Y-123679000D01*
X87728000Y-123639000D02*
X89130000Y-123639000D01*
X91210000Y-123639000D02*
X92612000Y-123639000D01*
X87742000Y-123599000D02*
X89130000Y-123599000D01*
X91210000Y-123599000D02*
X92598000Y-123599000D01*
X87756000Y-123559000D02*
X89130000Y-123559000D01*
X91210000Y-123559000D02*
X92584000Y-123559000D01*
X87772000Y-123519000D02*
X89130000Y-123519000D01*
X91210000Y-123519000D02*
X92568000Y-123519000D01*
X87788000Y-123479000D02*
X89130000Y-123479000D01*
X91210000Y-123479000D02*
X92552000Y-123479000D01*
X87805000Y-123439000D02*
X89130000Y-123439000D01*
X91210000Y-123439000D02*
X92535000Y-123439000D01*
X87822000Y-123399000D02*
X89130000Y-123399000D01*
X91210000Y-123399000D02*
X92518000Y-123399000D01*
X87841000Y-123359000D02*
X89130000Y-123359000D01*
X91210000Y-123359000D02*
X92499000Y-123359000D01*
X87860000Y-123319000D02*
X89130000Y-123319000D01*
X91210000Y-123319000D02*
X92480000Y-123319000D01*
X87880000Y-123279000D02*
X89130000Y-123279000D01*
X91210000Y-123279000D02*
X92460000Y-123279000D01*
X87902000Y-123239000D02*
X89130000Y-123239000D01*
X91210000Y-123239000D02*
X92438000Y-123239000D01*
X87923000Y-123199000D02*
X89130000Y-123199000D01*
X91210000Y-123199000D02*
X92417000Y-123199000D01*
X87946000Y-123159000D02*
X89130000Y-123159000D01*
X91210000Y-123159000D02*
X92394000Y-123159000D01*
X87970000Y-123119000D02*
X89130000Y-123119000D01*
X91210000Y-123119000D02*
X92370000Y-123119000D01*
X87995000Y-123079000D02*
X89130000Y-123079000D01*
X91210000Y-123079000D02*
X92345000Y-123079000D01*
X88021000Y-123039000D02*
X89130000Y-123039000D01*
X91210000Y-123039000D02*
X92319000Y-123039000D01*
X88048000Y-122999000D02*
X89130000Y-122999000D01*
X91210000Y-122999000D02*
X92292000Y-122999000D01*
X88075000Y-122959000D02*
X89130000Y-122959000D01*
X91210000Y-122959000D02*
X92265000Y-122959000D01*
X88105000Y-122919000D02*
X89130000Y-122919000D01*
X91210000Y-122919000D02*
X92235000Y-122919000D01*
X88135000Y-122879000D02*
X89130000Y-122879000D01*
X91210000Y-122879000D02*
X92205000Y-122879000D01*
X88166000Y-122839000D02*
X89130000Y-122839000D01*
X91210000Y-122839000D02*
X92174000Y-122839000D01*
X88199000Y-122799000D02*
X89130000Y-122799000D01*
X91210000Y-122799000D02*
X92141000Y-122799000D01*
X88233000Y-122759000D02*
X89130000Y-122759000D01*
X91210000Y-122759000D02*
X92107000Y-122759000D01*
X88269000Y-122719000D02*
X89130000Y-122719000D01*
X91210000Y-122719000D02*
X92071000Y-122719000D01*
X88306000Y-122679000D02*
X89130000Y-122679000D01*
X91210000Y-122679000D02*
X92034000Y-122679000D01*
X88344000Y-122639000D02*
X89130000Y-122639000D01*
X91210000Y-122639000D02*
X91996000Y-122639000D01*
X88385000Y-122599000D02*
X89130000Y-122599000D01*
X91210000Y-122599000D02*
X91955000Y-122599000D01*
X88427000Y-122559000D02*
X89130000Y-122559000D01*
X91210000Y-122559000D02*
X91913000Y-122559000D01*
X88471000Y-122519000D02*
X89130000Y-122519000D01*
X91210000Y-122519000D02*
X91869000Y-122519000D01*
X88517000Y-122479000D02*
X89130000Y-122479000D01*
X91210000Y-122479000D02*
X91823000Y-122479000D01*
X88565000Y-122439000D02*
X89130000Y-122439000D01*
X91210000Y-122439000D02*
X91775000Y-122439000D01*
X88616000Y-122399000D02*
X89130000Y-122399000D01*
X91210000Y-122399000D02*
X91724000Y-122399000D01*
X88670000Y-122359000D02*
X89130000Y-122359000D01*
X91210000Y-122359000D02*
X91670000Y-122359000D01*
X88727000Y-122319000D02*
X89130000Y-122319000D01*
X91210000Y-122319000D02*
X91613000Y-122319000D01*
X88787000Y-122279000D02*
X89130000Y-122279000D01*
X91210000Y-122279000D02*
X91553000Y-122279000D01*
X88851000Y-122239000D02*
X89130000Y-122239000D01*
X91210000Y-122239000D02*
X91489000Y-122239000D01*
X88919000Y-122199000D02*
X89130000Y-122199000D01*
X91210000Y-122199000D02*
X91421000Y-122199000D01*
X88992000Y-122159000D02*
X91348000Y-122159000D01*
X89072000Y-122119000D02*
X91268000Y-122119000D01*
X89159000Y-122079000D02*
X91181000Y-122079000D01*
X89255000Y-122039000D02*
X91085000Y-122039000D01*
X89365000Y-121999000D02*
X90975000Y-121999000D01*
X89493000Y-121959000D02*
X90847000Y-121959000D01*
X89652000Y-121919000D02*
X90688000Y-121919000D01*
X89886000Y-121879000D02*
X90454000Y-121879000D01*
X88695000Y-127284775D02*
X88695000Y-126784775D01*
X88445000Y-127034775D02*
X88945000Y-127034775D01*
G04 #@! TO.C,J1*
X68140000Y-130245000D02*
X72160000Y-130245000D01*
X72160000Y-130245000D02*
X72160000Y-122525000D01*
X72160000Y-122525000D02*
X68140000Y-122525000D01*
X68140000Y-122525000D02*
X68140000Y-130245000D01*
X69850000Y-130245000D02*
X69850000Y-129745000D01*
X69850000Y-129745000D02*
X68640000Y-129745000D01*
X68640000Y-129745000D02*
X68640000Y-123025000D01*
X68640000Y-123025000D02*
X69850000Y-123025000D01*
X69850000Y-123025000D02*
X69850000Y-122525000D01*
X70660000Y-130245000D02*
X70660000Y-129245000D01*
X70660000Y-129245000D02*
X72160000Y-129245000D01*
X70660000Y-122525000D02*
X70660000Y-123525000D01*
X70660000Y-123525000D02*
X72160000Y-123525000D01*
X69960000Y-130545000D02*
X72460000Y-130545000D01*
X72460000Y-130545000D02*
X72460000Y-128045000D01*
G04 #@! TO.C,J2*
X72460000Y-121655000D02*
X72460000Y-119155000D01*
X69960000Y-121655000D02*
X72460000Y-121655000D01*
X70660000Y-114635000D02*
X72160000Y-114635000D01*
X70660000Y-113635000D02*
X70660000Y-114635000D01*
X70660000Y-120355000D02*
X72160000Y-120355000D01*
X70660000Y-121355000D02*
X70660000Y-120355000D01*
X69850000Y-114135000D02*
X69850000Y-113635000D01*
X68640000Y-114135000D02*
X69850000Y-114135000D01*
X68640000Y-120855000D02*
X68640000Y-114135000D01*
X69850000Y-120855000D02*
X68640000Y-120855000D01*
X69850000Y-121355000D02*
X69850000Y-120855000D01*
X68140000Y-113635000D02*
X68140000Y-121355000D01*
X72160000Y-113635000D02*
X68140000Y-113635000D01*
X72160000Y-121355000D02*
X72160000Y-113635000D01*
X68140000Y-121355000D02*
X72160000Y-121355000D01*
G04 #@! TO.C,J3*
X94050000Y-113470000D02*
X94050000Y-109450000D01*
X94050000Y-109450000D02*
X86330000Y-109450000D01*
X86330000Y-109450000D02*
X86330000Y-113470000D01*
X86330000Y-113470000D02*
X94050000Y-113470000D01*
X94050000Y-111760000D02*
X93550000Y-111760000D01*
X93550000Y-111760000D02*
X93550000Y-112970000D01*
X93550000Y-112970000D02*
X86830000Y-112970000D01*
X86830000Y-112970000D02*
X86830000Y-111760000D01*
X86830000Y-111760000D02*
X86330000Y-111760000D01*
X94050000Y-110950000D02*
X93050000Y-110950000D01*
X93050000Y-110950000D02*
X93050000Y-109450000D01*
X86330000Y-110950000D02*
X87330000Y-110950000D01*
X87330000Y-110950000D02*
X87330000Y-109450000D01*
X94350000Y-111650000D02*
X94350000Y-109150000D01*
X94350000Y-109150000D02*
X91850000Y-109150000D01*
G04 #@! TO.C,J4*
X106335000Y-109150000D02*
X103835000Y-109150000D01*
X106335000Y-111650000D02*
X106335000Y-109150000D01*
X96815000Y-110950000D02*
X96815000Y-109450000D01*
X95815000Y-110950000D02*
X96815000Y-110950000D01*
X105035000Y-110950000D02*
X105035000Y-109450000D01*
X106035000Y-110950000D02*
X105035000Y-110950000D01*
X96315000Y-111760000D02*
X95815000Y-111760000D01*
X96315000Y-112970000D02*
X96315000Y-111760000D01*
X105535000Y-112970000D02*
X96315000Y-112970000D01*
X105535000Y-111760000D02*
X105535000Y-112970000D01*
X106035000Y-111760000D02*
X105535000Y-111760000D01*
X95815000Y-113470000D02*
X106035000Y-113470000D01*
X95815000Y-109450000D02*
X95815000Y-113470000D01*
X106035000Y-109450000D02*
X95815000Y-109450000D01*
X106035000Y-113470000D02*
X106035000Y-109450000D01*
G04 #@! TO.C,J5*
X104705000Y-126560000D02*
X104705000Y-130580000D01*
X104705000Y-130580000D02*
X114925000Y-130580000D01*
X114925000Y-130580000D02*
X114925000Y-126560000D01*
X114925000Y-126560000D02*
X104705000Y-126560000D01*
X104705000Y-128270000D02*
X105205000Y-128270000D01*
X105205000Y-128270000D02*
X105205000Y-127060000D01*
X105205000Y-127060000D02*
X114425000Y-127060000D01*
X114425000Y-127060000D02*
X114425000Y-128270000D01*
X114425000Y-128270000D02*
X114925000Y-128270000D01*
X104705000Y-129080000D02*
X105705000Y-129080000D01*
X105705000Y-129080000D02*
X105705000Y-130580000D01*
X114925000Y-129080000D02*
X113925000Y-129080000D01*
X113925000Y-129080000D02*
X113925000Y-130580000D01*
X104405000Y-128380000D02*
X104405000Y-130880000D01*
X104405000Y-130880000D02*
X106905000Y-130880000D01*
G04 #@! TO.C,J6*
X93275000Y-126560000D02*
X93275000Y-130580000D01*
X93275000Y-130580000D02*
X103495000Y-130580000D01*
X103495000Y-130580000D02*
X103495000Y-126560000D01*
X103495000Y-126560000D02*
X93275000Y-126560000D01*
X93275000Y-128270000D02*
X93775000Y-128270000D01*
X93775000Y-128270000D02*
X93775000Y-127060000D01*
X93775000Y-127060000D02*
X102995000Y-127060000D01*
X102995000Y-127060000D02*
X102995000Y-128270000D01*
X102995000Y-128270000D02*
X103495000Y-128270000D01*
X93275000Y-129080000D02*
X94275000Y-129080000D01*
X94275000Y-129080000D02*
X94275000Y-130580000D01*
X103495000Y-129080000D02*
X102495000Y-129080000D01*
X102495000Y-129080000D02*
X102495000Y-130580000D01*
X92975000Y-128380000D02*
X92975000Y-130880000D01*
X92975000Y-130880000D02*
X95475000Y-130880000D01*
G04 #@! TO.C,R1*
X105005000Y-116840000D02*
X104235000Y-116840000D01*
X96925000Y-116840000D02*
X97695000Y-116840000D01*
X104235000Y-115470000D02*
X97695000Y-115470000D01*
X104235000Y-118210000D02*
X104235000Y-115470000D01*
X97695000Y-118210000D02*
X104235000Y-118210000D01*
X97695000Y-115470000D02*
X97695000Y-118210000D01*
G04 #@! TO.C,R3*
X109760000Y-110390000D02*
X109760000Y-113130000D01*
X109760000Y-113130000D02*
X116300000Y-113130000D01*
X116300000Y-113130000D02*
X116300000Y-110390000D01*
X116300000Y-110390000D02*
X109760000Y-110390000D01*
X108990000Y-111760000D02*
X109760000Y-111760000D01*
X117070000Y-111760000D02*
X116300000Y-111760000D01*
G04 #@! TO.C,R4*
X105005000Y-123190000D02*
X104235000Y-123190000D01*
X96925000Y-123190000D02*
X97695000Y-123190000D01*
X104235000Y-121820000D02*
X97695000Y-121820000D01*
X104235000Y-124560000D02*
X104235000Y-121820000D01*
X97695000Y-124560000D02*
X104235000Y-124560000D01*
X97695000Y-121820000D02*
X97695000Y-124560000D01*
G04 #@! TO.C,U1*
X74890000Y-125850000D02*
X85130000Y-125850000D01*
X74890000Y-109960000D02*
X85130000Y-109960000D01*
X74890000Y-109960000D02*
X74890000Y-125850000D01*
X85130000Y-109960000D02*
X85130000Y-125850000D01*
X77470000Y-125850000D02*
X77470000Y-128390000D01*
X80010000Y-125850000D02*
X80010000Y-128390000D01*
X82550000Y-125850000D02*
X82550000Y-128390000D01*
G04 #@! TO.C,R2*
D11*
X100798333Y-120467380D02*
X100465000Y-119991190D01*
X100226904Y-120467380D02*
X100226904Y-119467380D01*
X100607857Y-119467380D01*
X100703095Y-119515000D01*
X100750714Y-119562619D01*
X100798333Y-119657857D01*
X100798333Y-119800714D01*
X100750714Y-119895952D01*
X100703095Y-119943571D01*
X100607857Y-119991190D01*
X100226904Y-119991190D01*
X101179285Y-119562619D02*
X101226904Y-119515000D01*
X101322142Y-119467380D01*
X101560238Y-119467380D01*
X101655476Y-119515000D01*
X101703095Y-119562619D01*
X101750714Y-119657857D01*
X101750714Y-119753095D01*
X101703095Y-119895952D01*
X101131666Y-120467380D01*
X101750714Y-120467380D01*
G04 #@! TO.C,U2*
X112268095Y-118832380D02*
X112268095Y-119641904D01*
X112315714Y-119737142D01*
X112363333Y-119784761D01*
X112458571Y-119832380D01*
X112649047Y-119832380D01*
X112744285Y-119784761D01*
X112791904Y-119737142D01*
X112839523Y-119641904D01*
X112839523Y-118832380D01*
X113268095Y-118927619D02*
X113315714Y-118880000D01*
X113410952Y-118832380D01*
X113649047Y-118832380D01*
X113744285Y-118880000D01*
X113791904Y-118927619D01*
X113839523Y-119022857D01*
X113839523Y-119118095D01*
X113791904Y-119260952D01*
X113220476Y-119832380D01*
X113839523Y-119832380D01*
G04 #@! TO.C,C1*
X93702142Y-115736666D02*
X93749761Y-115784285D01*
X93797380Y-115927142D01*
X93797380Y-116022380D01*
X93749761Y-116165238D01*
X93654523Y-116260476D01*
X93559285Y-116308095D01*
X93368809Y-116355714D01*
X93225952Y-116355714D01*
X93035476Y-116308095D01*
X92940238Y-116260476D01*
X92845000Y-116165238D01*
X92797380Y-116022380D01*
X92797380Y-115927142D01*
X92845000Y-115784285D01*
X92892619Y-115736666D01*
X93797380Y-114784285D02*
X93797380Y-115355714D01*
X93797380Y-115070000D02*
X92797380Y-115070000D01*
X92940238Y-115165238D01*
X93035476Y-115260476D01*
X93083095Y-115355714D01*
G04 #@! TO.C,C2*
X93702142Y-121451666D02*
X93749761Y-121499285D01*
X93797380Y-121642142D01*
X93797380Y-121737380D01*
X93749761Y-121880238D01*
X93654523Y-121975476D01*
X93559285Y-122023095D01*
X93368809Y-122070714D01*
X93225952Y-122070714D01*
X93035476Y-122023095D01*
X92940238Y-121975476D01*
X92845000Y-121880238D01*
X92797380Y-121737380D01*
X92797380Y-121642142D01*
X92845000Y-121499285D01*
X92892619Y-121451666D01*
X92892619Y-121070714D02*
X92845000Y-121023095D01*
X92797380Y-120927857D01*
X92797380Y-120689761D01*
X92845000Y-120594523D01*
X92892619Y-120546904D01*
X92987857Y-120499285D01*
X93083095Y-120499285D01*
X93225952Y-120546904D01*
X93797380Y-121118333D01*
X93797380Y-120499285D01*
G04 #@! TO.C,J1*
X70786666Y-130897380D02*
X70786666Y-131611666D01*
X70739047Y-131754523D01*
X70643809Y-131849761D01*
X70500952Y-131897380D01*
X70405714Y-131897380D01*
X71786666Y-131897380D02*
X71215238Y-131897380D01*
X71500952Y-131897380D02*
X71500952Y-130897380D01*
X71405714Y-131040238D01*
X71310476Y-131135476D01*
X71215238Y-131183095D01*
X73702380Y-128694523D02*
X72702380Y-128694523D01*
X72702380Y-128313571D01*
X72750000Y-128218333D01*
X72797619Y-128170714D01*
X72892857Y-128123095D01*
X73035714Y-128123095D01*
X73130952Y-128170714D01*
X73178571Y-128218333D01*
X73226190Y-128313571D01*
X73226190Y-128694523D01*
X72702380Y-127504047D02*
X72702380Y-127313571D01*
X72750000Y-127218333D01*
X72845238Y-127123095D01*
X73035714Y-127075476D01*
X73369047Y-127075476D01*
X73559523Y-127123095D01*
X73654761Y-127218333D01*
X73702380Y-127313571D01*
X73702380Y-127504047D01*
X73654761Y-127599285D01*
X73559523Y-127694523D01*
X73369047Y-127742142D01*
X73035714Y-127742142D01*
X72845238Y-127694523D01*
X72750000Y-127599285D01*
X72702380Y-127504047D01*
X72702380Y-126742142D02*
X73702380Y-126504047D01*
X72988095Y-126313571D01*
X73702380Y-126123095D01*
X72702380Y-125885000D01*
X73178571Y-125504047D02*
X73178571Y-125170714D01*
X73702380Y-125027857D02*
X73702380Y-125504047D01*
X72702380Y-125504047D01*
X72702380Y-125027857D01*
X73702380Y-124027857D02*
X73226190Y-124361190D01*
X73702380Y-124599285D02*
X72702380Y-124599285D01*
X72702380Y-124218333D01*
X72750000Y-124123095D01*
X72797619Y-124075476D01*
X72892857Y-124027857D01*
X73035714Y-124027857D01*
X73130952Y-124075476D01*
X73178571Y-124123095D01*
X73226190Y-124218333D01*
X73226190Y-124599285D01*
G04 #@! TO.C,J2*
X70786666Y-111847380D02*
X70786666Y-112561666D01*
X70739047Y-112704523D01*
X70643809Y-112799761D01*
X70500952Y-112847380D01*
X70405714Y-112847380D01*
X71215238Y-111942619D02*
X71262857Y-111895000D01*
X71358095Y-111847380D01*
X71596190Y-111847380D01*
X71691428Y-111895000D01*
X71739047Y-111942619D01*
X71786666Y-112037857D01*
X71786666Y-112133095D01*
X71739047Y-112275952D01*
X71167619Y-112847380D01*
X71786666Y-112847380D01*
X73654761Y-119995000D02*
X73702380Y-119852142D01*
X73702380Y-119614047D01*
X73654761Y-119518809D01*
X73607142Y-119471190D01*
X73511904Y-119423571D01*
X73416666Y-119423571D01*
X73321428Y-119471190D01*
X73273809Y-119518809D01*
X73226190Y-119614047D01*
X73178571Y-119804523D01*
X73130952Y-119899761D01*
X73083333Y-119947380D01*
X72988095Y-119995000D01*
X72892857Y-119995000D01*
X72797619Y-119947380D01*
X72750000Y-119899761D01*
X72702380Y-119804523D01*
X72702380Y-119566428D01*
X72750000Y-119423571D01*
X72702380Y-119090238D02*
X73702380Y-118852142D01*
X72988095Y-118661666D01*
X73702380Y-118471190D01*
X72702380Y-118233095D01*
X73702380Y-117852142D02*
X72702380Y-117852142D01*
X72702380Y-117518809D02*
X72702380Y-116947380D01*
X73702380Y-117233095D02*
X72702380Y-117233095D01*
X73607142Y-116042619D02*
X73654761Y-116090238D01*
X73702380Y-116233095D01*
X73702380Y-116328333D01*
X73654761Y-116471190D01*
X73559523Y-116566428D01*
X73464285Y-116614047D01*
X73273809Y-116661666D01*
X73130952Y-116661666D01*
X72940476Y-116614047D01*
X72845238Y-116566428D01*
X72750000Y-116471190D01*
X72702380Y-116328333D01*
X72702380Y-116233095D01*
X72750000Y-116090238D01*
X72797619Y-116042619D01*
X73702380Y-115614047D02*
X72702380Y-115614047D01*
X73178571Y-115614047D02*
X73178571Y-115042619D01*
X73702380Y-115042619D02*
X72702380Y-115042619D01*
G04 #@! TO.C,J3*
X90471666Y-108037380D02*
X90471666Y-108751666D01*
X90424047Y-108894523D01*
X90328809Y-108989761D01*
X90185952Y-109037380D01*
X90090714Y-109037380D01*
X90852619Y-108037380D02*
X91471666Y-108037380D01*
X91138333Y-108418333D01*
X91281190Y-108418333D01*
X91376428Y-108465952D01*
X91424047Y-108513571D01*
X91471666Y-108608809D01*
X91471666Y-108846904D01*
X91424047Y-108942142D01*
X91376428Y-108989761D01*
X91281190Y-109037380D01*
X90995476Y-109037380D01*
X90900238Y-108989761D01*
X90852619Y-108942142D01*
X86987142Y-109037380D02*
X86510952Y-109037380D01*
X86510952Y-108037380D01*
X87320476Y-108513571D02*
X87653809Y-108513571D01*
X87796666Y-109037380D02*
X87320476Y-109037380D01*
X87320476Y-108037380D01*
X87796666Y-108037380D01*
X88225238Y-109037380D02*
X88225238Y-108037380D01*
X88463333Y-108037380D01*
X88606190Y-108085000D01*
X88701428Y-108180238D01*
X88749047Y-108275476D01*
X88796666Y-108465952D01*
X88796666Y-108608809D01*
X88749047Y-108799285D01*
X88701428Y-108894523D01*
X88606190Y-108989761D01*
X88463333Y-109037380D01*
X88225238Y-109037380D01*
G04 #@! TO.C,J4*
X104996666Y-108037380D02*
X104996666Y-108751666D01*
X104949047Y-108894523D01*
X104853809Y-108989761D01*
X104710952Y-109037380D01*
X104615714Y-109037380D01*
X105901428Y-108370714D02*
X105901428Y-109037380D01*
X105663333Y-107989761D02*
X105425238Y-108704047D01*
X106044285Y-108704047D01*
X96019761Y-109037380D02*
X96019761Y-108037380D01*
X96353095Y-108751666D01*
X96686428Y-108037380D01*
X96686428Y-109037380D01*
X97353095Y-108037380D02*
X97543571Y-108037380D01*
X97638809Y-108085000D01*
X97734047Y-108180238D01*
X97781666Y-108370714D01*
X97781666Y-108704047D01*
X97734047Y-108894523D01*
X97638809Y-108989761D01*
X97543571Y-109037380D01*
X97353095Y-109037380D01*
X97257857Y-108989761D01*
X97162619Y-108894523D01*
X97115000Y-108704047D01*
X97115000Y-108370714D01*
X97162619Y-108180238D01*
X97257857Y-108085000D01*
X97353095Y-108037380D01*
X98210238Y-109037380D02*
X98210238Y-108037380D01*
X98448333Y-108037380D01*
X98591190Y-108085000D01*
X98686428Y-108180238D01*
X98734047Y-108275476D01*
X98781666Y-108465952D01*
X98781666Y-108608809D01*
X98734047Y-108799285D01*
X98686428Y-108894523D01*
X98591190Y-108989761D01*
X98448333Y-109037380D01*
X98210238Y-109037380D01*
X99210238Y-108513571D02*
X99543571Y-108513571D01*
X99686428Y-109037380D02*
X99210238Y-109037380D01*
X99210238Y-108037380D01*
X99686428Y-108037380D01*
X100876904Y-109037380D02*
X100876904Y-108037380D01*
X101257857Y-108037380D01*
X101353095Y-108085000D01*
X101400714Y-108132619D01*
X101448333Y-108227857D01*
X101448333Y-108370714D01*
X101400714Y-108465952D01*
X101353095Y-108513571D01*
X101257857Y-108561190D01*
X100876904Y-108561190D01*
X102067380Y-108037380D02*
X102257857Y-108037380D01*
X102353095Y-108085000D01*
X102448333Y-108180238D01*
X102495952Y-108370714D01*
X102495952Y-108704047D01*
X102448333Y-108894523D01*
X102353095Y-108989761D01*
X102257857Y-109037380D01*
X102067380Y-109037380D01*
X101972142Y-108989761D01*
X101876904Y-108894523D01*
X101829285Y-108704047D01*
X101829285Y-108370714D01*
X101876904Y-108180238D01*
X101972142Y-108085000D01*
X102067380Y-108037380D01*
X102781666Y-108037380D02*
X103353095Y-108037380D01*
X103067380Y-109037380D02*
X103067380Y-108037380D01*
G04 #@! TO.C,J5*
X115871666Y-125952380D02*
X115871666Y-126666666D01*
X115824047Y-126809523D01*
X115728809Y-126904761D01*
X115585952Y-126952380D01*
X115490714Y-126952380D01*
X116824047Y-125952380D02*
X116347857Y-125952380D01*
X116300238Y-126428571D01*
X116347857Y-126380952D01*
X116443095Y-126333333D01*
X116681190Y-126333333D01*
X116776428Y-126380952D01*
X116824047Y-126428571D01*
X116871666Y-126523809D01*
X116871666Y-126761904D01*
X116824047Y-126857142D01*
X116776428Y-126904761D01*
X116681190Y-126952380D01*
X116443095Y-126952380D01*
X116347857Y-126904761D01*
X116300238Y-126857142D01*
X104738095Y-130897380D02*
X105309523Y-130897380D01*
X105023809Y-131897380D02*
X105023809Y-130897380D01*
X106214285Y-131897380D02*
X105880952Y-131421190D01*
X105642857Y-131897380D02*
X105642857Y-130897380D01*
X106023809Y-130897380D01*
X106119047Y-130945000D01*
X106166666Y-130992619D01*
X106214285Y-131087857D01*
X106214285Y-131230714D01*
X106166666Y-131325952D01*
X106119047Y-131373571D01*
X106023809Y-131421190D01*
X105642857Y-131421190D01*
X106642857Y-131897380D02*
X106642857Y-130897380D01*
X107642857Y-130945000D02*
X107547619Y-130897380D01*
X107404761Y-130897380D01*
X107261904Y-130945000D01*
X107166666Y-131040238D01*
X107119047Y-131135476D01*
X107071428Y-131325952D01*
X107071428Y-131468809D01*
X107119047Y-131659285D01*
X107166666Y-131754523D01*
X107261904Y-131849761D01*
X107404761Y-131897380D01*
X107500000Y-131897380D01*
X107642857Y-131849761D01*
X107690476Y-131802142D01*
X107690476Y-131468809D01*
X107500000Y-131468809D01*
X108642857Y-130945000D02*
X108547619Y-130897380D01*
X108404761Y-130897380D01*
X108261904Y-130945000D01*
X108166666Y-131040238D01*
X108119047Y-131135476D01*
X108071428Y-131325952D01*
X108071428Y-131468809D01*
X108119047Y-131659285D01*
X108166666Y-131754523D01*
X108261904Y-131849761D01*
X108404761Y-131897380D01*
X108500000Y-131897380D01*
X108642857Y-131849761D01*
X108690476Y-131802142D01*
X108690476Y-131468809D01*
X108500000Y-131468809D01*
X109119047Y-131373571D02*
X109452380Y-131373571D01*
X109595238Y-131897380D02*
X109119047Y-131897380D01*
X109119047Y-130897380D01*
X109595238Y-130897380D01*
X110595238Y-131897380D02*
X110261904Y-131421190D01*
X110023809Y-131897380D02*
X110023809Y-130897380D01*
X110404761Y-130897380D01*
X110500000Y-130945000D01*
X110547619Y-130992619D01*
X110595238Y-131087857D01*
X110595238Y-131230714D01*
X110547619Y-131325952D01*
X110500000Y-131373571D01*
X110404761Y-131421190D01*
X110023809Y-131421190D01*
X111785714Y-131897380D02*
X111785714Y-130897380D01*
X112166666Y-130897380D01*
X112261904Y-130945000D01*
X112309523Y-130992619D01*
X112357142Y-131087857D01*
X112357142Y-131230714D01*
X112309523Y-131325952D01*
X112261904Y-131373571D01*
X112166666Y-131421190D01*
X111785714Y-131421190D01*
X112976190Y-130897380D02*
X113166666Y-130897380D01*
X113261904Y-130945000D01*
X113357142Y-131040238D01*
X113404761Y-131230714D01*
X113404761Y-131564047D01*
X113357142Y-131754523D01*
X113261904Y-131849761D01*
X113166666Y-131897380D01*
X112976190Y-131897380D01*
X112880952Y-131849761D01*
X112785714Y-131754523D01*
X112738095Y-131564047D01*
X112738095Y-131230714D01*
X112785714Y-131040238D01*
X112880952Y-130945000D01*
X112976190Y-130897380D01*
X113690476Y-130897380D02*
X114261904Y-130897380D01*
X113976190Y-131897380D02*
X113976190Y-130897380D01*
G04 #@! TO.C,J6*
X96821666Y-130897380D02*
X96821666Y-131611666D01*
X96774047Y-131754523D01*
X96678809Y-131849761D01*
X96535952Y-131897380D01*
X96440714Y-131897380D01*
X97726428Y-130897380D02*
X97535952Y-130897380D01*
X97440714Y-130945000D01*
X97393095Y-130992619D01*
X97297857Y-131135476D01*
X97250238Y-131325952D01*
X97250238Y-131706904D01*
X97297857Y-131802142D01*
X97345476Y-131849761D01*
X97440714Y-131897380D01*
X97631190Y-131897380D01*
X97726428Y-131849761D01*
X97774047Y-131802142D01*
X97821666Y-131706904D01*
X97821666Y-131468809D01*
X97774047Y-131373571D01*
X97726428Y-131325952D01*
X97631190Y-131278333D01*
X97440714Y-131278333D01*
X97345476Y-131325952D01*
X97297857Y-131373571D01*
X97250238Y-131468809D01*
X100195238Y-131897380D02*
X100195238Y-130897380D01*
X100576190Y-130897380D01*
X100671428Y-130945000D01*
X100719047Y-130992619D01*
X100766666Y-131087857D01*
X100766666Y-131230714D01*
X100719047Y-131325952D01*
X100671428Y-131373571D01*
X100576190Y-131421190D01*
X100195238Y-131421190D01*
X101100000Y-130897380D02*
X101338095Y-131897380D01*
X101528571Y-131183095D01*
X101719047Y-131897380D01*
X101957142Y-130897380D01*
X102338095Y-131897380D02*
X102338095Y-130897380D01*
X102671428Y-131611666D01*
X103004761Y-130897380D01*
X103004761Y-131897380D01*
G04 #@! TO.C,R1*
X100798333Y-117292380D02*
X100465000Y-116816190D01*
X100226904Y-117292380D02*
X100226904Y-116292380D01*
X100607857Y-116292380D01*
X100703095Y-116340000D01*
X100750714Y-116387619D01*
X100798333Y-116482857D01*
X100798333Y-116625714D01*
X100750714Y-116720952D01*
X100703095Y-116768571D01*
X100607857Y-116816190D01*
X100226904Y-116816190D01*
X101750714Y-117292380D02*
X101179285Y-117292380D01*
X101465000Y-117292380D02*
X101465000Y-116292380D01*
X101369761Y-116435238D01*
X101274523Y-116530476D01*
X101179285Y-116578095D01*
G04 #@! TO.C,R3*
X112863333Y-112212380D02*
X112530000Y-111736190D01*
X112291904Y-112212380D02*
X112291904Y-111212380D01*
X112672857Y-111212380D01*
X112768095Y-111260000D01*
X112815714Y-111307619D01*
X112863333Y-111402857D01*
X112863333Y-111545714D01*
X112815714Y-111640952D01*
X112768095Y-111688571D01*
X112672857Y-111736190D01*
X112291904Y-111736190D01*
X113196666Y-111212380D02*
X113815714Y-111212380D01*
X113482380Y-111593333D01*
X113625238Y-111593333D01*
X113720476Y-111640952D01*
X113768095Y-111688571D01*
X113815714Y-111783809D01*
X113815714Y-112021904D01*
X113768095Y-112117142D01*
X113720476Y-112164761D01*
X113625238Y-112212380D01*
X113339523Y-112212380D01*
X113244285Y-112164761D01*
X113196666Y-112117142D01*
G04 #@! TO.C,R4*
X100798333Y-123642380D02*
X100465000Y-123166190D01*
X100226904Y-123642380D02*
X100226904Y-122642380D01*
X100607857Y-122642380D01*
X100703095Y-122690000D01*
X100750714Y-122737619D01*
X100798333Y-122832857D01*
X100798333Y-122975714D01*
X100750714Y-123070952D01*
X100703095Y-123118571D01*
X100607857Y-123166190D01*
X100226904Y-123166190D01*
X101655476Y-122975714D02*
X101655476Y-123642380D01*
X101417380Y-122594761D02*
X101179285Y-123309047D01*
X101798333Y-123309047D01*
G04 #@! TO.C,U1*
X79248095Y-108412380D02*
X79248095Y-109221904D01*
X79295714Y-109317142D01*
X79343333Y-109364761D01*
X79438571Y-109412380D01*
X79629047Y-109412380D01*
X79724285Y-109364761D01*
X79771904Y-109317142D01*
X79819523Y-109221904D01*
X79819523Y-108412380D01*
X80819523Y-109412380D02*
X80248095Y-109412380D01*
X80533809Y-109412380D02*
X80533809Y-108412380D01*
X80438571Y-108555238D01*
X80343333Y-108650476D01*
X80248095Y-108698095D01*
G04 #@! TD*
M02*
