G04 #@! TF.GenerationSoftware,KiCad,Pcbnew,(5.0.0)*
G04 #@! TF.CreationDate,2019-02-27T23:15:19+05:30*
G04 #@! TF.ProjectId,PCB,5043422E6B696361645F706362000000,rev?*
G04 #@! TF.SameCoordinates,Original*
G04 #@! TF.FileFunction,Copper,L2,Bot,Signal*
G04 #@! TF.FilePolarity,Positive*
%FSLAX46Y46*%
G04 Gerber Fmt 4.6, Leading zero omitted, Abs format (unit mm)*
G04 Created by KiCad (PCBNEW (5.0.0)) date 02/27/19 23:15:19*
%MOMM*%
%LPD*%
G01*
G04 APERTURE LIST*
G04 #@! TA.AperFunction,ComponentPad*
%ADD10C,1.600000*%
G04 #@! TD*
G04 #@! TA.AperFunction,ComponentPad*
%ADD11O,1.600000X1.600000*%
G04 #@! TD*
G04 #@! TA.AperFunction,ComponentPad*
%ADD12R,1.600000X1.600000*%
G04 #@! TD*
G04 #@! TA.AperFunction,ComponentPad*
%ADD13R,2.000000X1.700000*%
G04 #@! TD*
G04 #@! TA.AperFunction,ComponentPad*
%ADD14O,2.000000X1.700000*%
G04 #@! TD*
G04 #@! TA.AperFunction,ComponentPad*
%ADD15R,1.700000X2.000000*%
G04 #@! TD*
G04 #@! TA.AperFunction,ComponentPad*
%ADD16O,1.700000X2.000000*%
G04 #@! TD*
G04 #@! TA.AperFunction,ComponentPad*
%ADD17O,1.700000X1.950000*%
G04 #@! TD*
G04 #@! TA.AperFunction,ComponentPad*
%ADD18R,1.700000X1.950000*%
G04 #@! TD*
G04 #@! TA.AperFunction,ComponentPad*
%ADD19R,1.905000X2.000000*%
G04 #@! TD*
G04 #@! TA.AperFunction,ComponentPad*
%ADD20O,1.905000X2.000000*%
G04 #@! TD*
G04 #@! TA.AperFunction,Conductor*
%ADD21C,0.500000*%
G04 #@! TD*
G04 #@! TA.AperFunction,Conductor*
%ADD22C,0.254000*%
G04 #@! TD*
G04 APERTURE END LIST*
D10*
G04 #@! TO.P,R2,1*
G04 #@! TO.N,Net-(R1-Pad2)*
X106045000Y-120015000D03*
D11*
G04 #@! TO.P,R2,2*
G04 #@! TO.N,GND*
X95885000Y-120015000D03*
G04 #@! TD*
D12*
G04 #@! TO.P,U2,1*
G04 #@! TO.N,Net-(U2-Pad1)*
X109220000Y-116205000D03*
D11*
G04 #@! TO.P,U2,5*
G04 #@! TO.N,Net-(R3-Pad2)*
X116840000Y-123825000D03*
G04 #@! TO.P,U2,2*
G04 #@! TO.N,Net-(J4-Pad2)*
X109220000Y-118745000D03*
G04 #@! TO.P,U2,6*
G04 #@! TO.N,Net-(J6-Pad3)*
X116840000Y-121285000D03*
G04 #@! TO.P,U2,3*
G04 #@! TO.N,Net-(J5-Pad2)*
X109220000Y-121285000D03*
G04 #@! TO.P,U2,7*
G04 #@! TO.N,Net-(R1-Pad2)*
X116840000Y-118745000D03*
G04 #@! TO.P,U2,4*
G04 #@! TO.N,GND*
X109220000Y-123825000D03*
G04 #@! TO.P,U2,8*
G04 #@! TO.N,Net-(C2-Pad1)*
X116840000Y-116205000D03*
G04 #@! TD*
D12*
G04 #@! TO.P,C1,1*
G04 #@! TO.N,Net-(C1-Pad1)*
X90170000Y-116840000D03*
D10*
G04 #@! TO.P,C1,2*
G04 #@! TO.N,GND*
X90170000Y-119340000D03*
G04 #@! TD*
D12*
G04 #@! TO.P,C2,1*
G04 #@! TO.N,Net-(C2-Pad1)*
X90170000Y-125730000D03*
D10*
G04 #@! TO.P,C2,2*
G04 #@! TO.N,GND*
X90170000Y-123230000D03*
G04 #@! TD*
D13*
G04 #@! TO.P,J1,1*
G04 #@! TO.N,GND*
X69850000Y-127635000D03*
D14*
G04 #@! TO.P,J1,2*
G04 #@! TO.N,Net-(J1-Pad2)*
X69850000Y-125135000D03*
G04 #@! TD*
G04 #@! TO.P,J2,2*
G04 #@! TO.N,Net-(C1-Pad1)*
X69850000Y-116245000D03*
D13*
G04 #@! TO.P,J2,1*
G04 #@! TO.N,Net-(J1-Pad2)*
X69850000Y-118745000D03*
G04 #@! TD*
D15*
G04 #@! TO.P,J3,1*
G04 #@! TO.N,Net-(J3-Pad1)*
X91440000Y-111760000D03*
D16*
G04 #@! TO.P,J3,2*
G04 #@! TO.N,GND*
X88940000Y-111760000D03*
G04 #@! TD*
D17*
G04 #@! TO.P,J4,3*
G04 #@! TO.N,GND*
X98425000Y-111760000D03*
G04 #@! TO.P,J4,2*
G04 #@! TO.N,Net-(J4-Pad2)*
X100925000Y-111760000D03*
D18*
G04 #@! TO.P,J4,1*
G04 #@! TO.N,Net-(C1-Pad1)*
X103425000Y-111760000D03*
G04 #@! TD*
G04 #@! TO.P,J5,1*
G04 #@! TO.N,Net-(C1-Pad1)*
X107315000Y-128270000D03*
D17*
G04 #@! TO.P,J5,2*
G04 #@! TO.N,Net-(J5-Pad2)*
X109815000Y-128270000D03*
G04 #@! TO.P,J5,3*
G04 #@! TO.N,GND*
X112315000Y-128270000D03*
G04 #@! TD*
D18*
G04 #@! TO.P,J6,1*
G04 #@! TO.N,Net-(C1-Pad1)*
X95885000Y-128270000D03*
D17*
G04 #@! TO.P,J6,2*
G04 #@! TO.N,GND*
X98385000Y-128270000D03*
G04 #@! TO.P,J6,3*
G04 #@! TO.N,Net-(J6-Pad3)*
X100885000Y-128270000D03*
G04 #@! TD*
D11*
G04 #@! TO.P,R1,2*
G04 #@! TO.N,Net-(R1-Pad2)*
X106045000Y-116840000D03*
D10*
G04 #@! TO.P,R1,1*
G04 #@! TO.N,Net-(C1-Pad1)*
X95885000Y-116840000D03*
G04 #@! TD*
G04 #@! TO.P,R3,1*
G04 #@! TO.N,Net-(J3-Pad1)*
X107950000Y-111760000D03*
D11*
G04 #@! TO.P,R3,2*
G04 #@! TO.N,Net-(R3-Pad2)*
X118110000Y-111760000D03*
G04 #@! TD*
G04 #@! TO.P,R4,2*
G04 #@! TO.N,GND*
X106045000Y-123190000D03*
D10*
G04 #@! TO.P,R4,1*
G04 #@! TO.N,Net-(J6-Pad3)*
X95885000Y-123190000D03*
G04 #@! TD*
D19*
G04 #@! TO.P,U1,1*
G04 #@! TO.N,Net-(C1-Pad1)*
X77470000Y-129540000D03*
D20*
G04 #@! TO.P,U1,2*
G04 #@! TO.N,GND*
X80010000Y-129540000D03*
G04 #@! TO.P,U1,3*
G04 #@! TO.N,Net-(C2-Pad1)*
X82550000Y-129540000D03*
G04 #@! TD*
D21*
G04 #@! TO.N,Net-(C1-Pad1)*
X77470000Y-128040000D02*
X77470000Y-129540000D01*
X77470000Y-122365000D02*
X77470000Y-128040000D01*
X71350000Y-116245000D02*
X77470000Y-122365000D01*
X69850000Y-116245000D02*
X71350000Y-116245000D01*
X82995000Y-116840000D02*
X90170000Y-116840000D01*
X77470000Y-122365000D02*
X82995000Y-116840000D01*
X90170000Y-116840000D02*
X95885000Y-116840000D01*
X95885000Y-126795000D02*
X95885000Y-128270000D01*
X97135001Y-125544999D02*
X95885000Y-126795000D01*
X97135001Y-118090001D02*
X97135001Y-125544999D01*
X95885000Y-116840000D02*
X97135001Y-118090001D01*
X103425000Y-111885000D02*
X103425000Y-111760000D01*
X99269999Y-116040001D02*
X103425000Y-111885000D01*
X96684999Y-116040001D02*
X99269999Y-116040001D01*
X95885000Y-116840000D02*
X96684999Y-116040001D01*
X105965000Y-128270000D02*
X107315000Y-128270000D01*
X103239999Y-125544999D02*
X105965000Y-128270000D01*
X97135001Y-125544999D02*
X103239999Y-125544999D01*
G04 #@! TO.N,Net-(C2-Pad1)*
X90170000Y-127030000D02*
X90170000Y-125730000D01*
X87660000Y-129540000D02*
X90170000Y-127030000D01*
X82550000Y-129540000D02*
X87660000Y-129540000D01*
X93950000Y-130810000D02*
X90170000Y-127030000D01*
X112395000Y-130810000D02*
X93950000Y-130810000D01*
X114300000Y-128905000D02*
X112395000Y-130810000D01*
X116840000Y-116205000D02*
X114300000Y-118745000D01*
X114300000Y-118745000D02*
X114300000Y-128905000D01*
G04 #@! TO.N,Net-(J1-Pad2)*
X69850000Y-118745000D02*
X69850000Y-125135000D01*
G04 #@! TO.N,Net-(J3-Pad1)*
X92790000Y-111760000D02*
X91440000Y-111760000D01*
X94695000Y-109855000D02*
X92790000Y-111760000D01*
X107950000Y-111760000D02*
X106045000Y-109855000D01*
X106045000Y-109855000D02*
X94695000Y-109855000D01*
G04 #@! TO.N,GND*
X112315000Y-126920000D02*
X112315000Y-128270000D01*
X109220000Y-123825000D02*
X112315000Y-126920000D01*
G04 #@! TO.N,Net-(J5-Pad2)*
X109815000Y-128145000D02*
X109815000Y-128270000D01*
X107969999Y-126299999D02*
X109815000Y-128145000D01*
X107969999Y-122535001D02*
X107969999Y-126299999D01*
X109220000Y-121285000D02*
X107969999Y-122535001D01*
G04 #@! TO.N,Net-(R1-Pad2)*
X106045000Y-116840000D02*
X106045000Y-120015000D01*
G04 #@! TD*
D22*
G04 #@! TO.N,GND*
G36*
X119280000Y-110928098D02*
X119144577Y-110725423D01*
X118669909Y-110408260D01*
X118251333Y-110325000D01*
X117968667Y-110325000D01*
X117550091Y-110408260D01*
X117075423Y-110725423D01*
X116758260Y-111200091D01*
X116646887Y-111760000D01*
X116758260Y-112319909D01*
X117075423Y-112794577D01*
X117550091Y-113111740D01*
X117968667Y-113195000D01*
X118251333Y-113195000D01*
X118669909Y-113111740D01*
X119144577Y-112794577D01*
X119280000Y-112591902D01*
X119280001Y-128676493D01*
X119240360Y-128605709D01*
X118694894Y-128117149D01*
X118020583Y-127831615D01*
X117290138Y-127779897D01*
X116582323Y-127967571D01*
X115973460Y-128374400D01*
X115529203Y-128956517D01*
X115297455Y-129651151D01*
X115303206Y-130383402D01*
X115545836Y-131074311D01*
X115999182Y-131649377D01*
X116511226Y-131980000D01*
X68045000Y-131980000D01*
X68045000Y-116245000D01*
X68185908Y-116245000D01*
X68301161Y-116824418D01*
X68615114Y-117294281D01*
X68602235Y-117296843D01*
X68392191Y-117437191D01*
X68251843Y-117647235D01*
X68202560Y-117895000D01*
X68202560Y-119595000D01*
X68251843Y-119842765D01*
X68392191Y-120052809D01*
X68602235Y-120193157D01*
X68850000Y-120242440D01*
X68965000Y-120242440D01*
X68965001Y-123840117D01*
X68629375Y-124064375D01*
X68301161Y-124555582D01*
X68185908Y-125135000D01*
X68301161Y-125714418D01*
X68629375Y-126205625D01*
X69120582Y-126533839D01*
X69553744Y-126620000D01*
X70146256Y-126620000D01*
X70579418Y-126533839D01*
X71070625Y-126205625D01*
X71398839Y-125714418D01*
X71514092Y-125135000D01*
X71398839Y-124555582D01*
X71070625Y-124064375D01*
X70735000Y-123840118D01*
X70735000Y-120242440D01*
X70850000Y-120242440D01*
X71097765Y-120193157D01*
X71307809Y-120052809D01*
X71448157Y-119842765D01*
X71497440Y-119595000D01*
X71497440Y-117895000D01*
X71448157Y-117647235D01*
X71342437Y-117489015D01*
X76585000Y-122731579D01*
X76585001Y-127892560D01*
X76517500Y-127892560D01*
X76269735Y-127941843D01*
X76059691Y-128082191D01*
X75919343Y-128292235D01*
X75870060Y-128540000D01*
X75870060Y-130540000D01*
X75919343Y-130787765D01*
X76059691Y-130997809D01*
X76269735Y-131138157D01*
X76517500Y-131187440D01*
X78422500Y-131187440D01*
X78670265Y-131138157D01*
X78880309Y-130997809D01*
X79020657Y-130787765D01*
X79069940Y-130540000D01*
X79069940Y-129336151D01*
X80962500Y-129336151D01*
X80962500Y-129743850D01*
X81054609Y-130206911D01*
X81405477Y-130732023D01*
X81930590Y-131082891D01*
X82550000Y-131206100D01*
X83169411Y-131082891D01*
X83694523Y-130732023D01*
X83899668Y-130425000D01*
X87572839Y-130425000D01*
X87660000Y-130442337D01*
X87747161Y-130425000D01*
X87747165Y-130425000D01*
X88005310Y-130373652D01*
X88298049Y-130178049D01*
X88347425Y-130104153D01*
X90170000Y-128281578D01*
X93262577Y-131374156D01*
X93311951Y-131448049D01*
X93385844Y-131497423D01*
X93385845Y-131497424D01*
X93496880Y-131571615D01*
X93604690Y-131643652D01*
X93862835Y-131695000D01*
X93862839Y-131695000D01*
X93949999Y-131712337D01*
X94037159Y-131695000D01*
X112307839Y-131695000D01*
X112395000Y-131712337D01*
X112482161Y-131695000D01*
X112482165Y-131695000D01*
X112740310Y-131643652D01*
X113033049Y-131448049D01*
X113082425Y-131374153D01*
X114864156Y-129592423D01*
X114938049Y-129543049D01*
X114989783Y-129465625D01*
X115133652Y-129250310D01*
X115144715Y-129194690D01*
X115185000Y-128992165D01*
X115185000Y-128992161D01*
X115202337Y-128905000D01*
X115185000Y-128817839D01*
X115185000Y-119111578D01*
X115405870Y-118890708D01*
X115488260Y-119304909D01*
X115805423Y-119779577D01*
X116157758Y-120015000D01*
X115805423Y-120250423D01*
X115488260Y-120725091D01*
X115376887Y-121285000D01*
X115488260Y-121844909D01*
X115805423Y-122319577D01*
X116157758Y-122555000D01*
X115805423Y-122790423D01*
X115488260Y-123265091D01*
X115376887Y-123825000D01*
X115488260Y-124384909D01*
X115805423Y-124859577D01*
X116280091Y-125176740D01*
X116698667Y-125260000D01*
X116981333Y-125260000D01*
X117399909Y-125176740D01*
X117874577Y-124859577D01*
X118191740Y-124384909D01*
X118303113Y-123825000D01*
X118191740Y-123265091D01*
X117874577Y-122790423D01*
X117522242Y-122555000D01*
X117874577Y-122319577D01*
X118191740Y-121844909D01*
X118303113Y-121285000D01*
X118191740Y-120725091D01*
X117874577Y-120250423D01*
X117522242Y-120015000D01*
X117874577Y-119779577D01*
X118191740Y-119304909D01*
X118303113Y-118745000D01*
X118191740Y-118185091D01*
X117874577Y-117710423D01*
X117522242Y-117475000D01*
X117874577Y-117239577D01*
X118191740Y-116764909D01*
X118303113Y-116205000D01*
X118191740Y-115645091D01*
X117874577Y-115170423D01*
X117399909Y-114853260D01*
X116981333Y-114770000D01*
X116698667Y-114770000D01*
X116280091Y-114853260D01*
X115805423Y-115170423D01*
X115488260Y-115645091D01*
X115376887Y-116205000D01*
X115411983Y-116381438D01*
X113735847Y-118057575D01*
X113661951Y-118106951D01*
X113466348Y-118399691D01*
X113415000Y-118657836D01*
X113415000Y-118657839D01*
X113397663Y-118745000D01*
X113415000Y-118832161D01*
X113415001Y-128538420D01*
X112028422Y-129925000D01*
X94316579Y-129925000D01*
X91398782Y-127007204D01*
X91427809Y-126987809D01*
X91568157Y-126777765D01*
X91617440Y-126530000D01*
X91617440Y-124930000D01*
X91568157Y-124682235D01*
X91427809Y-124472191D01*
X91217765Y-124331843D01*
X90970000Y-124282560D01*
X89370000Y-124282560D01*
X89122235Y-124331843D01*
X88912191Y-124472191D01*
X88771843Y-124682235D01*
X88722560Y-124930000D01*
X88722560Y-126530000D01*
X88771843Y-126777765D01*
X88912191Y-126987809D01*
X88941217Y-127007204D01*
X87293422Y-128655000D01*
X83899669Y-128655000D01*
X83694523Y-128347977D01*
X83169410Y-127997109D01*
X82550000Y-127873900D01*
X81930589Y-127997109D01*
X81405477Y-128347977D01*
X81054609Y-128873090D01*
X80962500Y-129336151D01*
X79069940Y-129336151D01*
X79069940Y-128540000D01*
X79020657Y-128292235D01*
X78880309Y-128082191D01*
X78670265Y-127941843D01*
X78422500Y-127892560D01*
X78355000Y-127892560D01*
X78355000Y-122731578D01*
X83361579Y-117725000D01*
X88739467Y-117725000D01*
X88771843Y-117887765D01*
X88912191Y-118097809D01*
X89122235Y-118238157D01*
X89370000Y-118287440D01*
X90970000Y-118287440D01*
X91217765Y-118238157D01*
X91427809Y-118097809D01*
X91568157Y-117887765D01*
X91600533Y-117725000D01*
X94740604Y-117725000D01*
X95072138Y-118056534D01*
X95599561Y-118275000D01*
X96068421Y-118275000D01*
X96250001Y-118456580D01*
X96250001Y-121787956D01*
X96170439Y-121755000D01*
X95599561Y-121755000D01*
X95072138Y-121973466D01*
X94668466Y-122377138D01*
X94450000Y-122904561D01*
X94450000Y-123475439D01*
X94668466Y-124002862D01*
X95072138Y-124406534D01*
X95599561Y-124625000D01*
X96170439Y-124625000D01*
X96250002Y-124592044D01*
X96250002Y-125178419D01*
X95320847Y-126107575D01*
X95246951Y-126156951D01*
X95051348Y-126449691D01*
X95011042Y-126652326D01*
X94787235Y-126696843D01*
X94577191Y-126837191D01*
X94436843Y-127047235D01*
X94387560Y-127295000D01*
X94387560Y-129245000D01*
X94436843Y-129492765D01*
X94577191Y-129702809D01*
X94787235Y-129843157D01*
X95035000Y-129892440D01*
X96735000Y-129892440D01*
X96982765Y-129843157D01*
X97192809Y-129702809D01*
X97333157Y-129492765D01*
X97382440Y-129245000D01*
X97382440Y-127998745D01*
X99400000Y-127998745D01*
X99400000Y-128541256D01*
X99486161Y-128974418D01*
X99814375Y-129465625D01*
X100305583Y-129793839D01*
X100885000Y-129909092D01*
X101464418Y-129793839D01*
X101955625Y-129465625D01*
X102283839Y-128974417D01*
X102370000Y-128541255D01*
X102370000Y-127998744D01*
X102283839Y-127565582D01*
X101955625Y-127074375D01*
X101464417Y-126746161D01*
X100885000Y-126630908D01*
X100305582Y-126746161D01*
X99814375Y-127074375D01*
X99486161Y-127565583D01*
X99400000Y-127998745D01*
X97382440Y-127998745D01*
X97382440Y-127295000D01*
X97333157Y-127047235D01*
X97192809Y-126837191D01*
X97133810Y-126797769D01*
X97501580Y-126429999D01*
X102873421Y-126429999D01*
X105277577Y-128834156D01*
X105326951Y-128908049D01*
X105400844Y-128957423D01*
X105400845Y-128957424D01*
X105452839Y-128992165D01*
X105619690Y-129103652D01*
X105817560Y-129143011D01*
X105817560Y-129245000D01*
X105866843Y-129492765D01*
X106007191Y-129702809D01*
X106217235Y-129843157D01*
X106465000Y-129892440D01*
X108165000Y-129892440D01*
X108412765Y-129843157D01*
X108622809Y-129702809D01*
X108763157Y-129492765D01*
X108765719Y-129479886D01*
X109235583Y-129793839D01*
X109815000Y-129909092D01*
X110394418Y-129793839D01*
X110885625Y-129465625D01*
X111213839Y-128974417D01*
X111300000Y-128541255D01*
X111300000Y-127998744D01*
X111213839Y-127565582D01*
X110885625Y-127074375D01*
X110394417Y-126746161D01*
X109815000Y-126630908D01*
X109596040Y-126674462D01*
X108854999Y-125933421D01*
X108854999Y-122901579D01*
X109043561Y-122713017D01*
X109078667Y-122720000D01*
X109361333Y-122720000D01*
X109779909Y-122636740D01*
X110254577Y-122319577D01*
X110571740Y-121844909D01*
X110683113Y-121285000D01*
X110571740Y-120725091D01*
X110254577Y-120250423D01*
X109902242Y-120015000D01*
X110254577Y-119779577D01*
X110571740Y-119304909D01*
X110683113Y-118745000D01*
X110571740Y-118185091D01*
X110254577Y-117710423D01*
X110133894Y-117629785D01*
X110267765Y-117603157D01*
X110477809Y-117462809D01*
X110618157Y-117252765D01*
X110667440Y-117005000D01*
X110667440Y-115405000D01*
X110618157Y-115157235D01*
X110477809Y-114947191D01*
X110267765Y-114806843D01*
X110020000Y-114757560D01*
X108420000Y-114757560D01*
X108172235Y-114806843D01*
X107962191Y-114947191D01*
X107821843Y-115157235D01*
X107772560Y-115405000D01*
X107772560Y-117005000D01*
X107821843Y-117252765D01*
X107962191Y-117462809D01*
X108172235Y-117603157D01*
X108306106Y-117629785D01*
X108185423Y-117710423D01*
X107868260Y-118185091D01*
X107756887Y-118745000D01*
X107868260Y-119304909D01*
X108185423Y-119779577D01*
X108537758Y-120015000D01*
X108185423Y-120250423D01*
X107868260Y-120725091D01*
X107756887Y-121285000D01*
X107791983Y-121461439D01*
X107405846Y-121847576D01*
X107331950Y-121896952D01*
X107136347Y-122189692D01*
X107084999Y-122447837D01*
X107084999Y-122447840D01*
X107067662Y-122535001D01*
X107084999Y-122622162D01*
X107085000Y-126212834D01*
X107067662Y-126299999D01*
X107136347Y-126645308D01*
X107137852Y-126647560D01*
X106465000Y-126647560D01*
X106217235Y-126696843D01*
X106007191Y-126837191D01*
X105917701Y-126971122D01*
X103927424Y-124980846D01*
X103878048Y-124906950D01*
X103585309Y-124711347D01*
X103327164Y-124659999D01*
X103327160Y-124659999D01*
X103239999Y-124642662D01*
X103152838Y-124659999D01*
X98020001Y-124659999D01*
X98020001Y-118177160D01*
X98037338Y-118090000D01*
X98020001Y-118002840D01*
X98020001Y-118002836D01*
X97968653Y-117744691D01*
X97896616Y-117636881D01*
X97822425Y-117525846D01*
X97822424Y-117525845D01*
X97773050Y-117451952D01*
X97699157Y-117402578D01*
X97320000Y-117023421D01*
X97320000Y-116925001D01*
X99182838Y-116925001D01*
X99269999Y-116942338D01*
X99357160Y-116925001D01*
X99357164Y-116925001D01*
X99615309Y-116873653D01*
X99665674Y-116840000D01*
X104581887Y-116840000D01*
X104693260Y-117399909D01*
X105010423Y-117874577D01*
X105160000Y-117974521D01*
X105160001Y-118870603D01*
X104828466Y-119202138D01*
X104610000Y-119729561D01*
X104610000Y-120300439D01*
X104828466Y-120827862D01*
X105232138Y-121231534D01*
X105759561Y-121450000D01*
X106330439Y-121450000D01*
X106857862Y-121231534D01*
X107261534Y-120827862D01*
X107480000Y-120300439D01*
X107480000Y-119729561D01*
X107261534Y-119202138D01*
X106930000Y-118870604D01*
X106930000Y-117974521D01*
X107079577Y-117874577D01*
X107396740Y-117399909D01*
X107508113Y-116840000D01*
X107396740Y-116280091D01*
X107079577Y-115805423D01*
X106604909Y-115488260D01*
X106186333Y-115405000D01*
X105903667Y-115405000D01*
X105485091Y-115488260D01*
X105010423Y-115805423D01*
X104693260Y-116280091D01*
X104581887Y-116840000D01*
X99665674Y-116840000D01*
X99908048Y-116678050D01*
X99957424Y-116604154D01*
X103179139Y-113382440D01*
X104275000Y-113382440D01*
X104522765Y-113333157D01*
X104732809Y-113192809D01*
X104873157Y-112982765D01*
X104922440Y-112735000D01*
X104922440Y-110785000D01*
X104913489Y-110740000D01*
X105678422Y-110740000D01*
X106515000Y-111576579D01*
X106515000Y-112045439D01*
X106733466Y-112572862D01*
X107137138Y-112976534D01*
X107664561Y-113195000D01*
X108235439Y-113195000D01*
X108762862Y-112976534D01*
X109166534Y-112572862D01*
X109385000Y-112045439D01*
X109385000Y-111474561D01*
X109166534Y-110947138D01*
X108762862Y-110543466D01*
X108235439Y-110325000D01*
X107766579Y-110325000D01*
X106732425Y-109290847D01*
X106683049Y-109216951D01*
X106390310Y-109021348D01*
X106132165Y-108970000D01*
X106132161Y-108970000D01*
X106045000Y-108952663D01*
X105957839Y-108970000D01*
X94782161Y-108970000D01*
X94695000Y-108952663D01*
X94607839Y-108970000D01*
X94607835Y-108970000D01*
X94349690Y-109021348D01*
X94130845Y-109167576D01*
X94130844Y-109167577D01*
X94056951Y-109216951D01*
X94007577Y-109290844D01*
X92847313Y-110451108D01*
X92747809Y-110302191D01*
X92537765Y-110161843D01*
X92290000Y-110112560D01*
X90590000Y-110112560D01*
X90342235Y-110161843D01*
X90132191Y-110302191D01*
X89991843Y-110512235D01*
X89942560Y-110760000D01*
X89942560Y-112760000D01*
X89991843Y-113007765D01*
X90132191Y-113217809D01*
X90342235Y-113358157D01*
X90590000Y-113407440D01*
X92290000Y-113407440D01*
X92537765Y-113358157D01*
X92747809Y-113217809D01*
X92888157Y-113007765D01*
X92937440Y-112760000D01*
X92937440Y-112633011D01*
X93135310Y-112593652D01*
X93428049Y-112398049D01*
X93477425Y-112324153D01*
X95061579Y-110740000D01*
X99737026Y-110740000D01*
X99526161Y-111055582D01*
X99440000Y-111488744D01*
X99440000Y-112031255D01*
X99526161Y-112464417D01*
X99854375Y-112955625D01*
X100345582Y-113283839D01*
X100703407Y-113355015D01*
X98903421Y-115155001D01*
X96772158Y-115155001D01*
X96684998Y-115137664D01*
X96597838Y-115155001D01*
X96597834Y-115155001D01*
X96339689Y-115206349D01*
X96339687Y-115206350D01*
X96339688Y-115206350D01*
X96120844Y-115352577D01*
X96120843Y-115352578D01*
X96046950Y-115401952D01*
X96044913Y-115405000D01*
X95599561Y-115405000D01*
X95072138Y-115623466D01*
X94740604Y-115955000D01*
X91600533Y-115955000D01*
X91568157Y-115792235D01*
X91427809Y-115582191D01*
X91217765Y-115441843D01*
X90970000Y-115392560D01*
X89370000Y-115392560D01*
X89122235Y-115441843D01*
X88912191Y-115582191D01*
X88771843Y-115792235D01*
X88739467Y-115955000D01*
X83082161Y-115955000D01*
X82995000Y-115937663D01*
X82907839Y-115955000D01*
X82907835Y-115955000D01*
X82649690Y-116006348D01*
X82430845Y-116152576D01*
X82430844Y-116152577D01*
X82356951Y-116201951D01*
X82307577Y-116275844D01*
X77470000Y-121113421D01*
X72037425Y-115680847D01*
X71988049Y-115606951D01*
X71695310Y-115411348D01*
X71437165Y-115360000D01*
X71437161Y-115360000D01*
X71350000Y-115342663D01*
X71262839Y-115360000D01*
X71194656Y-115360000D01*
X71070625Y-115174375D01*
X70579418Y-114846161D01*
X70146256Y-114760000D01*
X69553744Y-114760000D01*
X69120582Y-114846161D01*
X68629375Y-115174375D01*
X68301161Y-115665582D01*
X68185908Y-116245000D01*
X68045000Y-116245000D01*
X68045000Y-112880000D01*
X77578276Y-112880000D01*
X77763380Y-113810580D01*
X78290511Y-114599489D01*
X79079420Y-115126620D01*
X79775103Y-115265000D01*
X80244897Y-115265000D01*
X80940580Y-115126620D01*
X81729489Y-114599489D01*
X82256620Y-113810580D01*
X82441724Y-112880000D01*
X82256620Y-111949420D01*
X81729489Y-111160511D01*
X80940580Y-110633380D01*
X80244897Y-110495000D01*
X79775103Y-110495000D01*
X79079420Y-110633380D01*
X78290511Y-111160511D01*
X77763380Y-111949420D01*
X77578276Y-112880000D01*
X68045000Y-112880000D01*
X68045000Y-111263524D01*
X68349182Y-111649377D01*
X68964360Y-112046593D01*
X69675036Y-112223126D01*
X70404578Y-112159940D01*
X71074321Y-111863850D01*
X71612046Y-111366783D01*
X71959770Y-110722336D01*
X72080000Y-110000000D01*
X72079725Y-109964973D01*
X71948164Y-109244614D01*
X71590360Y-108605709D01*
X71044894Y-108117149D01*
X70886316Y-108050000D01*
X119280000Y-108050000D01*
X119280000Y-110928098D01*
X119280000Y-110928098D01*
G37*
X119280000Y-110928098D02*
X119144577Y-110725423D01*
X118669909Y-110408260D01*
X118251333Y-110325000D01*
X117968667Y-110325000D01*
X117550091Y-110408260D01*
X117075423Y-110725423D01*
X116758260Y-111200091D01*
X116646887Y-111760000D01*
X116758260Y-112319909D01*
X117075423Y-112794577D01*
X117550091Y-113111740D01*
X117968667Y-113195000D01*
X118251333Y-113195000D01*
X118669909Y-113111740D01*
X119144577Y-112794577D01*
X119280000Y-112591902D01*
X119280001Y-128676493D01*
X119240360Y-128605709D01*
X118694894Y-128117149D01*
X118020583Y-127831615D01*
X117290138Y-127779897D01*
X116582323Y-127967571D01*
X115973460Y-128374400D01*
X115529203Y-128956517D01*
X115297455Y-129651151D01*
X115303206Y-130383402D01*
X115545836Y-131074311D01*
X115999182Y-131649377D01*
X116511226Y-131980000D01*
X68045000Y-131980000D01*
X68045000Y-116245000D01*
X68185908Y-116245000D01*
X68301161Y-116824418D01*
X68615114Y-117294281D01*
X68602235Y-117296843D01*
X68392191Y-117437191D01*
X68251843Y-117647235D01*
X68202560Y-117895000D01*
X68202560Y-119595000D01*
X68251843Y-119842765D01*
X68392191Y-120052809D01*
X68602235Y-120193157D01*
X68850000Y-120242440D01*
X68965000Y-120242440D01*
X68965001Y-123840117D01*
X68629375Y-124064375D01*
X68301161Y-124555582D01*
X68185908Y-125135000D01*
X68301161Y-125714418D01*
X68629375Y-126205625D01*
X69120582Y-126533839D01*
X69553744Y-126620000D01*
X70146256Y-126620000D01*
X70579418Y-126533839D01*
X71070625Y-126205625D01*
X71398839Y-125714418D01*
X71514092Y-125135000D01*
X71398839Y-124555582D01*
X71070625Y-124064375D01*
X70735000Y-123840118D01*
X70735000Y-120242440D01*
X70850000Y-120242440D01*
X71097765Y-120193157D01*
X71307809Y-120052809D01*
X71448157Y-119842765D01*
X71497440Y-119595000D01*
X71497440Y-117895000D01*
X71448157Y-117647235D01*
X71342437Y-117489015D01*
X76585000Y-122731579D01*
X76585001Y-127892560D01*
X76517500Y-127892560D01*
X76269735Y-127941843D01*
X76059691Y-128082191D01*
X75919343Y-128292235D01*
X75870060Y-128540000D01*
X75870060Y-130540000D01*
X75919343Y-130787765D01*
X76059691Y-130997809D01*
X76269735Y-131138157D01*
X76517500Y-131187440D01*
X78422500Y-131187440D01*
X78670265Y-131138157D01*
X78880309Y-130997809D01*
X79020657Y-130787765D01*
X79069940Y-130540000D01*
X79069940Y-129336151D01*
X80962500Y-129336151D01*
X80962500Y-129743850D01*
X81054609Y-130206911D01*
X81405477Y-130732023D01*
X81930590Y-131082891D01*
X82550000Y-131206100D01*
X83169411Y-131082891D01*
X83694523Y-130732023D01*
X83899668Y-130425000D01*
X87572839Y-130425000D01*
X87660000Y-130442337D01*
X87747161Y-130425000D01*
X87747165Y-130425000D01*
X88005310Y-130373652D01*
X88298049Y-130178049D01*
X88347425Y-130104153D01*
X90170000Y-128281578D01*
X93262577Y-131374156D01*
X93311951Y-131448049D01*
X93385844Y-131497423D01*
X93385845Y-131497424D01*
X93496880Y-131571615D01*
X93604690Y-131643652D01*
X93862835Y-131695000D01*
X93862839Y-131695000D01*
X93949999Y-131712337D01*
X94037159Y-131695000D01*
X112307839Y-131695000D01*
X112395000Y-131712337D01*
X112482161Y-131695000D01*
X112482165Y-131695000D01*
X112740310Y-131643652D01*
X113033049Y-131448049D01*
X113082425Y-131374153D01*
X114864156Y-129592423D01*
X114938049Y-129543049D01*
X114989783Y-129465625D01*
X115133652Y-129250310D01*
X115144715Y-129194690D01*
X115185000Y-128992165D01*
X115185000Y-128992161D01*
X115202337Y-128905000D01*
X115185000Y-128817839D01*
X115185000Y-119111578D01*
X115405870Y-118890708D01*
X115488260Y-119304909D01*
X115805423Y-119779577D01*
X116157758Y-120015000D01*
X115805423Y-120250423D01*
X115488260Y-120725091D01*
X115376887Y-121285000D01*
X115488260Y-121844909D01*
X115805423Y-122319577D01*
X116157758Y-122555000D01*
X115805423Y-122790423D01*
X115488260Y-123265091D01*
X115376887Y-123825000D01*
X115488260Y-124384909D01*
X115805423Y-124859577D01*
X116280091Y-125176740D01*
X116698667Y-125260000D01*
X116981333Y-125260000D01*
X117399909Y-125176740D01*
X117874577Y-124859577D01*
X118191740Y-124384909D01*
X118303113Y-123825000D01*
X118191740Y-123265091D01*
X117874577Y-122790423D01*
X117522242Y-122555000D01*
X117874577Y-122319577D01*
X118191740Y-121844909D01*
X118303113Y-121285000D01*
X118191740Y-120725091D01*
X117874577Y-120250423D01*
X117522242Y-120015000D01*
X117874577Y-119779577D01*
X118191740Y-119304909D01*
X118303113Y-118745000D01*
X118191740Y-118185091D01*
X117874577Y-117710423D01*
X117522242Y-117475000D01*
X117874577Y-117239577D01*
X118191740Y-116764909D01*
X118303113Y-116205000D01*
X118191740Y-115645091D01*
X117874577Y-115170423D01*
X117399909Y-114853260D01*
X116981333Y-114770000D01*
X116698667Y-114770000D01*
X116280091Y-114853260D01*
X115805423Y-115170423D01*
X115488260Y-115645091D01*
X115376887Y-116205000D01*
X115411983Y-116381438D01*
X113735847Y-118057575D01*
X113661951Y-118106951D01*
X113466348Y-118399691D01*
X113415000Y-118657836D01*
X113415000Y-118657839D01*
X113397663Y-118745000D01*
X113415000Y-118832161D01*
X113415001Y-128538420D01*
X112028422Y-129925000D01*
X94316579Y-129925000D01*
X91398782Y-127007204D01*
X91427809Y-126987809D01*
X91568157Y-126777765D01*
X91617440Y-126530000D01*
X91617440Y-124930000D01*
X91568157Y-124682235D01*
X91427809Y-124472191D01*
X91217765Y-124331843D01*
X90970000Y-124282560D01*
X89370000Y-124282560D01*
X89122235Y-124331843D01*
X88912191Y-124472191D01*
X88771843Y-124682235D01*
X88722560Y-124930000D01*
X88722560Y-126530000D01*
X88771843Y-126777765D01*
X88912191Y-126987809D01*
X88941217Y-127007204D01*
X87293422Y-128655000D01*
X83899669Y-128655000D01*
X83694523Y-128347977D01*
X83169410Y-127997109D01*
X82550000Y-127873900D01*
X81930589Y-127997109D01*
X81405477Y-128347977D01*
X81054609Y-128873090D01*
X80962500Y-129336151D01*
X79069940Y-129336151D01*
X79069940Y-128540000D01*
X79020657Y-128292235D01*
X78880309Y-128082191D01*
X78670265Y-127941843D01*
X78422500Y-127892560D01*
X78355000Y-127892560D01*
X78355000Y-122731578D01*
X83361579Y-117725000D01*
X88739467Y-117725000D01*
X88771843Y-117887765D01*
X88912191Y-118097809D01*
X89122235Y-118238157D01*
X89370000Y-118287440D01*
X90970000Y-118287440D01*
X91217765Y-118238157D01*
X91427809Y-118097809D01*
X91568157Y-117887765D01*
X91600533Y-117725000D01*
X94740604Y-117725000D01*
X95072138Y-118056534D01*
X95599561Y-118275000D01*
X96068421Y-118275000D01*
X96250001Y-118456580D01*
X96250001Y-121787956D01*
X96170439Y-121755000D01*
X95599561Y-121755000D01*
X95072138Y-121973466D01*
X94668466Y-122377138D01*
X94450000Y-122904561D01*
X94450000Y-123475439D01*
X94668466Y-124002862D01*
X95072138Y-124406534D01*
X95599561Y-124625000D01*
X96170439Y-124625000D01*
X96250002Y-124592044D01*
X96250002Y-125178419D01*
X95320847Y-126107575D01*
X95246951Y-126156951D01*
X95051348Y-126449691D01*
X95011042Y-126652326D01*
X94787235Y-126696843D01*
X94577191Y-126837191D01*
X94436843Y-127047235D01*
X94387560Y-127295000D01*
X94387560Y-129245000D01*
X94436843Y-129492765D01*
X94577191Y-129702809D01*
X94787235Y-129843157D01*
X95035000Y-129892440D01*
X96735000Y-129892440D01*
X96982765Y-129843157D01*
X97192809Y-129702809D01*
X97333157Y-129492765D01*
X97382440Y-129245000D01*
X97382440Y-127998745D01*
X99400000Y-127998745D01*
X99400000Y-128541256D01*
X99486161Y-128974418D01*
X99814375Y-129465625D01*
X100305583Y-129793839D01*
X100885000Y-129909092D01*
X101464418Y-129793839D01*
X101955625Y-129465625D01*
X102283839Y-128974417D01*
X102370000Y-128541255D01*
X102370000Y-127998744D01*
X102283839Y-127565582D01*
X101955625Y-127074375D01*
X101464417Y-126746161D01*
X100885000Y-126630908D01*
X100305582Y-126746161D01*
X99814375Y-127074375D01*
X99486161Y-127565583D01*
X99400000Y-127998745D01*
X97382440Y-127998745D01*
X97382440Y-127295000D01*
X97333157Y-127047235D01*
X97192809Y-126837191D01*
X97133810Y-126797769D01*
X97501580Y-126429999D01*
X102873421Y-126429999D01*
X105277577Y-128834156D01*
X105326951Y-128908049D01*
X105400844Y-128957423D01*
X105400845Y-128957424D01*
X105452839Y-128992165D01*
X105619690Y-129103652D01*
X105817560Y-129143011D01*
X105817560Y-129245000D01*
X105866843Y-129492765D01*
X106007191Y-129702809D01*
X106217235Y-129843157D01*
X106465000Y-129892440D01*
X108165000Y-129892440D01*
X108412765Y-129843157D01*
X108622809Y-129702809D01*
X108763157Y-129492765D01*
X108765719Y-129479886D01*
X109235583Y-129793839D01*
X109815000Y-129909092D01*
X110394418Y-129793839D01*
X110885625Y-129465625D01*
X111213839Y-128974417D01*
X111300000Y-128541255D01*
X111300000Y-127998744D01*
X111213839Y-127565582D01*
X110885625Y-127074375D01*
X110394417Y-126746161D01*
X109815000Y-126630908D01*
X109596040Y-126674462D01*
X108854999Y-125933421D01*
X108854999Y-122901579D01*
X109043561Y-122713017D01*
X109078667Y-122720000D01*
X109361333Y-122720000D01*
X109779909Y-122636740D01*
X110254577Y-122319577D01*
X110571740Y-121844909D01*
X110683113Y-121285000D01*
X110571740Y-120725091D01*
X110254577Y-120250423D01*
X109902242Y-120015000D01*
X110254577Y-119779577D01*
X110571740Y-119304909D01*
X110683113Y-118745000D01*
X110571740Y-118185091D01*
X110254577Y-117710423D01*
X110133894Y-117629785D01*
X110267765Y-117603157D01*
X110477809Y-117462809D01*
X110618157Y-117252765D01*
X110667440Y-117005000D01*
X110667440Y-115405000D01*
X110618157Y-115157235D01*
X110477809Y-114947191D01*
X110267765Y-114806843D01*
X110020000Y-114757560D01*
X108420000Y-114757560D01*
X108172235Y-114806843D01*
X107962191Y-114947191D01*
X107821843Y-115157235D01*
X107772560Y-115405000D01*
X107772560Y-117005000D01*
X107821843Y-117252765D01*
X107962191Y-117462809D01*
X108172235Y-117603157D01*
X108306106Y-117629785D01*
X108185423Y-117710423D01*
X107868260Y-118185091D01*
X107756887Y-118745000D01*
X107868260Y-119304909D01*
X108185423Y-119779577D01*
X108537758Y-120015000D01*
X108185423Y-120250423D01*
X107868260Y-120725091D01*
X107756887Y-121285000D01*
X107791983Y-121461439D01*
X107405846Y-121847576D01*
X107331950Y-121896952D01*
X107136347Y-122189692D01*
X107084999Y-122447837D01*
X107084999Y-122447840D01*
X107067662Y-122535001D01*
X107084999Y-122622162D01*
X107085000Y-126212834D01*
X107067662Y-126299999D01*
X107136347Y-126645308D01*
X107137852Y-126647560D01*
X106465000Y-126647560D01*
X106217235Y-126696843D01*
X106007191Y-126837191D01*
X105917701Y-126971122D01*
X103927424Y-124980846D01*
X103878048Y-124906950D01*
X103585309Y-124711347D01*
X103327164Y-124659999D01*
X103327160Y-124659999D01*
X103239999Y-124642662D01*
X103152838Y-124659999D01*
X98020001Y-124659999D01*
X98020001Y-118177160D01*
X98037338Y-118090000D01*
X98020001Y-118002840D01*
X98020001Y-118002836D01*
X97968653Y-117744691D01*
X97896616Y-117636881D01*
X97822425Y-117525846D01*
X97822424Y-117525845D01*
X97773050Y-117451952D01*
X97699157Y-117402578D01*
X97320000Y-117023421D01*
X97320000Y-116925001D01*
X99182838Y-116925001D01*
X99269999Y-116942338D01*
X99357160Y-116925001D01*
X99357164Y-116925001D01*
X99615309Y-116873653D01*
X99665674Y-116840000D01*
X104581887Y-116840000D01*
X104693260Y-117399909D01*
X105010423Y-117874577D01*
X105160000Y-117974521D01*
X105160001Y-118870603D01*
X104828466Y-119202138D01*
X104610000Y-119729561D01*
X104610000Y-120300439D01*
X104828466Y-120827862D01*
X105232138Y-121231534D01*
X105759561Y-121450000D01*
X106330439Y-121450000D01*
X106857862Y-121231534D01*
X107261534Y-120827862D01*
X107480000Y-120300439D01*
X107480000Y-119729561D01*
X107261534Y-119202138D01*
X106930000Y-118870604D01*
X106930000Y-117974521D01*
X107079577Y-117874577D01*
X107396740Y-117399909D01*
X107508113Y-116840000D01*
X107396740Y-116280091D01*
X107079577Y-115805423D01*
X106604909Y-115488260D01*
X106186333Y-115405000D01*
X105903667Y-115405000D01*
X105485091Y-115488260D01*
X105010423Y-115805423D01*
X104693260Y-116280091D01*
X104581887Y-116840000D01*
X99665674Y-116840000D01*
X99908048Y-116678050D01*
X99957424Y-116604154D01*
X103179139Y-113382440D01*
X104275000Y-113382440D01*
X104522765Y-113333157D01*
X104732809Y-113192809D01*
X104873157Y-112982765D01*
X104922440Y-112735000D01*
X104922440Y-110785000D01*
X104913489Y-110740000D01*
X105678422Y-110740000D01*
X106515000Y-111576579D01*
X106515000Y-112045439D01*
X106733466Y-112572862D01*
X107137138Y-112976534D01*
X107664561Y-113195000D01*
X108235439Y-113195000D01*
X108762862Y-112976534D01*
X109166534Y-112572862D01*
X109385000Y-112045439D01*
X109385000Y-111474561D01*
X109166534Y-110947138D01*
X108762862Y-110543466D01*
X108235439Y-110325000D01*
X107766579Y-110325000D01*
X106732425Y-109290847D01*
X106683049Y-109216951D01*
X106390310Y-109021348D01*
X106132165Y-108970000D01*
X106132161Y-108970000D01*
X106045000Y-108952663D01*
X105957839Y-108970000D01*
X94782161Y-108970000D01*
X94695000Y-108952663D01*
X94607839Y-108970000D01*
X94607835Y-108970000D01*
X94349690Y-109021348D01*
X94130845Y-109167576D01*
X94130844Y-109167577D01*
X94056951Y-109216951D01*
X94007577Y-109290844D01*
X92847313Y-110451108D01*
X92747809Y-110302191D01*
X92537765Y-110161843D01*
X92290000Y-110112560D01*
X90590000Y-110112560D01*
X90342235Y-110161843D01*
X90132191Y-110302191D01*
X89991843Y-110512235D01*
X89942560Y-110760000D01*
X89942560Y-112760000D01*
X89991843Y-113007765D01*
X90132191Y-113217809D01*
X90342235Y-113358157D01*
X90590000Y-113407440D01*
X92290000Y-113407440D01*
X92537765Y-113358157D01*
X92747809Y-113217809D01*
X92888157Y-113007765D01*
X92937440Y-112760000D01*
X92937440Y-112633011D01*
X93135310Y-112593652D01*
X93428049Y-112398049D01*
X93477425Y-112324153D01*
X95061579Y-110740000D01*
X99737026Y-110740000D01*
X99526161Y-111055582D01*
X99440000Y-111488744D01*
X99440000Y-112031255D01*
X99526161Y-112464417D01*
X99854375Y-112955625D01*
X100345582Y-113283839D01*
X100703407Y-113355015D01*
X98903421Y-115155001D01*
X96772158Y-115155001D01*
X96684998Y-115137664D01*
X96597838Y-115155001D01*
X96597834Y-115155001D01*
X96339689Y-115206349D01*
X96339687Y-115206350D01*
X96339688Y-115206350D01*
X96120844Y-115352577D01*
X96120843Y-115352578D01*
X96046950Y-115401952D01*
X96044913Y-115405000D01*
X95599561Y-115405000D01*
X95072138Y-115623466D01*
X94740604Y-115955000D01*
X91600533Y-115955000D01*
X91568157Y-115792235D01*
X91427809Y-115582191D01*
X91217765Y-115441843D01*
X90970000Y-115392560D01*
X89370000Y-115392560D01*
X89122235Y-115441843D01*
X88912191Y-115582191D01*
X88771843Y-115792235D01*
X88739467Y-115955000D01*
X83082161Y-115955000D01*
X82995000Y-115937663D01*
X82907839Y-115955000D01*
X82907835Y-115955000D01*
X82649690Y-116006348D01*
X82430845Y-116152576D01*
X82430844Y-116152577D01*
X82356951Y-116201951D01*
X82307577Y-116275844D01*
X77470000Y-121113421D01*
X72037425Y-115680847D01*
X71988049Y-115606951D01*
X71695310Y-115411348D01*
X71437165Y-115360000D01*
X71437161Y-115360000D01*
X71350000Y-115342663D01*
X71262839Y-115360000D01*
X71194656Y-115360000D01*
X71070625Y-115174375D01*
X70579418Y-114846161D01*
X70146256Y-114760000D01*
X69553744Y-114760000D01*
X69120582Y-114846161D01*
X68629375Y-115174375D01*
X68301161Y-115665582D01*
X68185908Y-116245000D01*
X68045000Y-116245000D01*
X68045000Y-112880000D01*
X77578276Y-112880000D01*
X77763380Y-113810580D01*
X78290511Y-114599489D01*
X79079420Y-115126620D01*
X79775103Y-115265000D01*
X80244897Y-115265000D01*
X80940580Y-115126620D01*
X81729489Y-114599489D01*
X82256620Y-113810580D01*
X82441724Y-112880000D01*
X82256620Y-111949420D01*
X81729489Y-111160511D01*
X80940580Y-110633380D01*
X80244897Y-110495000D01*
X79775103Y-110495000D01*
X79079420Y-110633380D01*
X78290511Y-111160511D01*
X77763380Y-111949420D01*
X77578276Y-112880000D01*
X68045000Y-112880000D01*
X68045000Y-111263524D01*
X68349182Y-111649377D01*
X68964360Y-112046593D01*
X69675036Y-112223126D01*
X70404578Y-112159940D01*
X71074321Y-111863850D01*
X71612046Y-111366783D01*
X71959770Y-110722336D01*
X72080000Y-110000000D01*
X72079725Y-109964973D01*
X71948164Y-109244614D01*
X71590360Y-108605709D01*
X71044894Y-108117149D01*
X70886316Y-108050000D01*
X119280000Y-108050000D01*
X119280000Y-110928098D01*
G04 #@! TD*
M02*
