M48
INCH,TZ
T1C0.0315
T2C0.0374
T3C0.0394
T4C0.0433
%
G90
G05
T1
X42500Y-44000
X46500Y-44000
X35500Y-48516
X35500Y-49500
X43000Y-45750
X43000Y-46750
X43000Y-47750
X43000Y-48750
X46000Y-45750
X46000Y-46750
X46000Y-47750
X46000Y-48750
X37750Y-47250
X41750Y-47250
X37750Y-48500
X41750Y-48500
X35500Y-46000
X35500Y-46984
X37750Y-46000
X41750Y-46000
T2
X37750Y-50500
X38734Y-50500
X39719Y-50500
X38750Y-44000
X39734Y-44000
X40719Y-44000
X42250Y-50500
X43234Y-50500
X44219Y-50500
T3
X27500Y-49266
X27500Y-50250
X27500Y-45766
X27500Y-46750
X35016Y-44000
X36000Y-44000
T4
X30500Y-51000
X31500Y-51000
X32500Y-51000
T0
M30
